<?xml version="1.0" encoding="UTF-8"?>
<svg version="1.1" xmlns="http://www.w3.org/2000/svg" width="512" height="512">
<path d="M0 0 C1.21883377 -0.00623996 2.43766754 -0.01247993 3.69343567 -0.01890898 C7.03695896 -0.03199398 10.3795684 -0.02743469 13.72303391 -0.0149641 C17.34411327 -0.00584578 20.96511761 -0.01991665 24.58618164 -0.03088379 C31.66414479 -0.04860186 38.74193757 -0.04485915 45.81990719 -0.03323323 C51.57607856 -0.0241726 57.33220244 -0.02298623 63.08837891 -0.02732849 C63.90992179 -0.02794142 64.73146467 -0.02855436 65.57790279 -0.02918586 C67.24723436 -0.03046486 68.91656591 -0.03176171 70.58589745 -0.03307623 C86.21226148 -0.04446236 101.8385314 -0.03139928 117.46487999 -0.00987476 C130.85163375 0.00799444 144.23824874 0.00488978 157.625 -0.0135498 C173.19825014 -0.03499136 188.77141795 -0.04336391 204.34468079 -0.03110075 C206.00761921 -0.02982665 207.67055765 -0.02856917 209.33349609 -0.02732849 C210.15153686 -0.02671139 210.96957762 -0.02609429 211.81240749 -0.02545848 C217.55676194 -0.02201543 223.30106385 -0.02781132 229.04541016 -0.0372467 C236.05290288 -0.04850467 243.06021654 -0.04534731 250.06768894 -0.02412373 C253.63800972 -0.01366404 257.20803275 -0.00940363 260.77835083 -0.02272034 C264.65969124 -0.03697737 268.5405519 -0.01987089 272.421875 0 C273.5346431 -0.00892289 274.64741119 -0.01784577 275.79389954 -0.02703905 C290.38500917 0.11710059 302.82208578 5.29294486 313.4609375 15.25793457 C324.50093686 27.04449127 328.84971092 40.35022375 328.71214294 56.31718445 C328.71767734 57.53813492 328.72321174 58.75908538 328.72891384 60.01703435 C328.74007856 63.36635765 328.73357834 66.7147573 328.71917713 70.06400812 C328.70798543 73.69115722 328.72003664 77.31824379 328.72901917 80.94538879 C328.74289703 88.0343849 328.73543662 95.12320194 328.72034358 102.2121894 C328.70342092 110.47727902 328.70670149 118.74232482 328.71043766 127.00742642 C328.71630597 141.75787598 328.70218372 156.50823998 328.67749023 171.25866699 C328.65355941 185.55524907 328.64649239 199.85171691 328.65698242 214.14831543 C328.66840247 229.74020919 328.67030928 245.33205021 328.65588433 260.92394334 C328.65435857 262.58767052 328.65283822 264.2513977 328.65132332 265.91512489 C328.6505655 266.73358779 328.64980769 267.55205069 328.64902691 268.39531549 C328.64429351 274.15008413 328.64612872 279.90482913 328.65038872 285.6595974 C328.65532506 292.67483912 328.64928759 299.68997305 328.62949442 306.70519014 C328.61965194 310.2811666 328.61448427 313.85697924 328.62238693 317.43296432 C328.63079086 321.31529143 328.61580804 325.19733313 328.59861755 329.07963562 C328.60763262 330.76189555 328.60763262 330.76189555 328.61682981 332.47814053 C328.56192297 339.3086601 327.56340358 345.09395339 325.2109375 351.50793457 C324.8809375 352.41285645 324.5509375 353.31777832 324.2109375 354.25012207 C318.25041021 366.96280918 307.48291679 376.91592114 294.3984375 381.82043457 C289.50489175 383.49398485 285.28564315 384.63215663 280.09270287 384.63936234 C279.05285378 384.64320348 278.01300469 384.64704463 276.94164503 384.65100217 C275.800615 384.65013569 274.65958497 384.6492692 273.48397827 384.64837646 C272.27071763 384.65134759 271.05745698 384.65431871 269.80743086 384.65737987 C266.43808976 384.66456059 263.06879964 384.66723922 259.69945455 384.66797733 C256.06602867 384.66982861 252.43261383 384.6773764 248.79919434 384.68411255 C240.85273372 384.69769438 232.90627816 384.70372057 224.95980787 384.70812321 C219.9967294 384.71088631 215.03365287 384.71512383 210.07057571 384.71962738 C196.32618774 384.73182066 182.58180133 384.74211933 168.83740807 384.74550247 C167.51786999 384.74583182 167.51786999 384.74583182 166.17167459 384.74616782 C165.28988708 384.7463861 164.40809957 384.74660438 163.49959123 384.74682927 C161.71278087 384.74727274 159.92597051 384.7477193 158.13916016 384.74816895 C157.25284206 384.74839038 156.36652397 384.7486118 155.45334776 384.74883994 C141.09817897 384.75278628 126.743061 384.770235 112.38791184 384.79352847 C97.64559312 384.81725679 82.90329987 384.82970502 68.16096175 384.83087039 C59.88540036 384.8317864 51.60990516 384.83752003 43.33436203 384.85569 C36.28598393 384.87111109 29.23769247 384.87619968 22.1893007 384.8679519 C18.59514583 384.86405227 15.0011653 384.86494113 11.40703201 384.87900925 C7.50454621 384.89414411 3.60230408 384.88586112 -0.30020142 384.87542725 C-1.42784711 384.88348365 -2.55549281 384.89154006 -3.71730959 384.89984059 C-10.56680488 384.85707669 -16.35856279 383.87121331 -22.7890625 381.50793457 C-23.69398437 381.17793457 -24.59890625 380.84793457 -25.53125 380.50793457 C-37.79197652 374.75931554 -48.00646713 364.18863263 -52.93917418 351.56448364 C-55.45666585 343.78202953 -56.3623745 336.8720532 -56.29699707 328.71887207 C-56.30323703 327.5000383 -56.309477 326.28120453 -56.31590605 325.0254364 C-56.32899105 321.68191311 -56.32443176 318.33930368 -56.31196117 314.99583817 C-56.30284285 311.3747588 -56.31691372 307.75375446 -56.32788086 304.13269043 C-56.34559893 297.05472728 -56.34185622 289.9769345 -56.3302303 282.89896488 C-56.32116967 277.14279351 -56.3199833 271.38666963 -56.32432556 265.63049316 C-56.32493849 264.80895028 -56.32555143 263.9874074 -56.32618293 263.14096928 C-56.32746193 261.47163771 -56.32875878 259.80230616 -56.3300733 258.13297462 C-56.34145943 242.5066106 -56.32839635 226.88034067 -56.30687183 211.25399208 C-56.28900263 197.86723832 -56.29210729 184.48062333 -56.31054688 171.09387207 C-56.33198843 155.52062193 -56.34036098 139.94745412 -56.32809782 124.37419128 C-56.32682372 122.71125286 -56.32556624 121.04831443 -56.32432556 119.38537598 C-56.32370846 118.56733521 -56.32309136 117.74929445 -56.32245556 116.90646458 C-56.3190125 111.16211013 -56.32480839 105.41780822 -56.33424377 99.67346191 C-56.34550174 92.66596919 -56.34234438 85.65865553 -56.3211208 78.65118313 C-56.31066111 75.08086235 -56.3064007 71.51083932 -56.31971741 67.94052124 C-56.33397444 64.05918083 -56.31686796 60.17832017 -56.29699707 56.29699707 C-56.30591996 55.18422897 -56.31484284 54.07146088 -56.32403612 52.92497253 C-56.17989648 38.3338629 -51.00405221 25.89678629 -41.0390625 15.25793457 C-29.26022439 4.2251649 -15.95704395 -0.12795379 0 0 Z M-25.80859375 32.21496582 C-30.69014976 37.86678708 -33.90797016 44.89180359 -33.92328358 52.37818241 C-33.92774142 53.38817329 -33.93219926 54.39816416 -33.93679219 55.43876082 C-33.93660783 56.5515761 -33.93642347 57.66439139 -33.93623352 58.81092834 C-33.93991021 59.99066615 -33.9435869 61.17040395 -33.947375 62.38589138 C-33.95650365 65.66626987 -33.96111195 68.94661896 -33.96376431 72.22700799 C-33.96766719 75.76297478 -33.97724566 79.29892709 -33.98597717 82.83488464 C-34.00574385 91.37806206 -34.01580884 99.92124067 -34.02470496 108.46443525 C-34.02908824 112.48827864 -34.03445501 116.51212071 -34.03969383 120.53596306 C-34.05670764 133.91401299 -34.07120096 147.2920621 -34.07844257 160.67012119 C-34.08035245 164.14218204 -34.08227279 167.61424289 -34.08422852 171.08630371 C-34.08471226 171.94926239 -34.085196 172.81222106 -34.0856944 173.70133 C-34.09399147 187.67505485 -34.11932223 201.64869401 -34.15180919 215.62238146 C-34.18489653 229.9714239 -34.20289292 244.32042284 -34.20608681 258.66950363 C-34.20825055 266.72489384 -34.21697899 274.78015915 -34.24254799 282.83551216 C-34.26427803 289.69728296 -34.27229419 296.55889853 -34.26258121 303.42069984 C-34.25804289 306.91971634 -34.25989483 310.41841271 -34.27934265 313.9173851 C-34.29703191 317.7172113 -34.28996855 321.5162285 -34.27680969 325.3160553 C-34.28777894 326.41325553 -34.29874818 327.51045576 -34.31004983 328.64090449 C-34.22329888 339.03623776 -31.23278042 346.94740338 -24.08203125 354.52746582 C10.86243852 384.70948656 68.03659026 362.50793457 114.2109375 362.50793457 C114.2109375 250.30793457 114.2109375 138.10793457 114.2109375 22.50793457 C55.5632184 11.84455135 55.5632184 11.84455135 -25.80859375 32.21496582 Z M136.2109375 22.50793457 C136.2109375 134.70793457 136.2109375 246.90793457 136.2109375 362.50793457 C224.59483381 376.21748415 224.59483381 376.21748415 298.23046875 352.80090332 C303.11202476 347.14908206 306.32984516 340.12406555 306.34515858 332.63768673 C306.35184534 331.12270042 306.35184534 331.12270042 306.35866719 329.57710832 C306.35848283 328.46429304 306.35829847 327.35147776 306.35810852 326.2049408 C306.36178521 325.02520299 306.3654619 323.84546519 306.36925 322.62997776 C306.37837865 319.34959927 306.38298695 316.06925018 306.38563931 312.78886116 C306.38954219 309.25289436 306.39912066 305.71694205 306.40785217 302.1809845 C306.42761885 293.63780708 306.43768384 285.09462847 306.44657996 276.55143389 C306.45096324 272.5275905 306.45633001 268.50374843 306.46156883 264.47990608 C306.47858264 251.10185615 306.49307596 237.72380704 306.50031757 224.34574795 C306.50222745 220.8736871 306.50414779 217.40162625 306.50610352 213.92956543 C306.50658726 213.06660675 306.507071 212.20364808 306.5075694 211.31453914 C306.51586647 197.34081429 306.54119723 183.36717513 306.57368419 169.39348768 C306.60677153 155.04444524 306.62476792 140.69544631 306.62796181 126.34636551 C306.63012555 118.2909753 306.63885399 110.23570999 306.66442299 102.18035698 C306.68615303 95.31858618 306.69416919 88.45697061 306.68445621 81.5951693 C306.67991789 78.0961528 306.68176983 74.59745643 306.70121765 71.09848404 C306.71890691 67.29865784 306.71184355 63.49964064 306.69868469 59.69981384 C306.70965394 58.60261361 306.72062318 57.50541338 306.73192483 56.37496465 C306.64517388 45.97963138 303.65465542 38.06846576 296.50390625 30.48840332 C256.01756887 -4.48020495 189.70810639 22.50793457 136.2109375 22.50793457 Z " fill="#000000" transform="translate(119.7890625,63.4920654296875)"/>
<path d="M0 0 C1.36145393 -0.01248528 1.36145393 -0.01248528 2.75041199 -0.02522278 C5.75707261 -0.04935827 8.76351639 -0.05809964 11.77026367 -0.06469727 C13.8591061 -0.07366154 15.94794786 -0.08278335 18.03678894 -0.09205627 C22.41907309 -0.10855893 26.80128074 -0.1162486 31.18359375 -0.11914062 C36.79608582 -0.1245229 42.40785763 -0.16219145 48.02014637 -0.20788479 C52.33618283 -0.23764526 56.65204574 -0.24486398 60.96817589 -0.24586678 C63.03702782 -0.25007178 65.10588015 -0.26251724 67.17463112 -0.28338432 C70.0713842 -0.31027464 72.96646661 -0.30547988 75.86328125 -0.29296875 C76.71596588 -0.30780304 77.56865051 -0.32263733 78.44717407 -0.33792114 C82.63911492 -0.28642845 85.31687535 0.03172446 88.64555359 2.70347595 C91.78183463 5.99496857 92.14912004 7.71164888 92.36791992 12.08764648 C91.98212521 15.62202383 90.4292371 17.6829606 88.12573242 20.30639648 C84.18638835 22.93262586 80.80829014 22.60174125 76.2355957 22.59692383 C75.32635345 22.60364105 74.41711121 22.61035828 73.48031616 22.61727905 C70.46883711 22.63630653 67.45758037 22.64018568 64.44604492 22.64233398 C62.35480659 22.64875873 60.26356918 22.65548684 58.17233276 22.6625061 C53.78584713 22.67449084 49.39944031 22.67818571 45.01293945 22.67700195 C39.39148029 22.67679873 33.77052647 22.70409964 28.14918709 22.73854637 C23.82890501 22.76078186 19.50874516 22.76484052 15.18841171 22.7637825 C13.11595798 22.76614356 11.04350114 22.77499538 8.97110367 22.79044724 C6.07192846 22.8100387 3.17385101 22.80429591 0.2746582 22.79223633 C-0.5816217 22.80347534 -1.43790161 22.81471436 -2.32012939 22.82629395 C-6.371485 22.78346082 -8.37064273 22.6286693 -11.86404419 20.39321899 C-14.74419194 17.40332385 -15.71153229 15.55403368 -16.24926758 11.43139648 C-15.77288256 7.46152135 -14.34386332 5.41103113 -11.87426758 2.30639648 C-7.94037957 -0.31619552 -4.56704485 0.00353486 0 0 Z " fill="#000000" transform="translate(121.874267578125,212.693603515625)"/>
<path d="M0 0 C0.92904144 -0.0087616 1.85808289 -0.01752319 2.8152771 -0.02655029 C5.88123504 -0.04852747 8.94574657 -0.03399718 12.01171875 -0.01708984 C14.14494096 -0.02045845 16.27816131 -0.02531144 18.41137695 -0.03158569 C22.88023162 -0.03895477 27.3485863 -0.02825001 31.81738281 -0.00488281 C37.54435524 0.02360453 43.27015612 0.0072008 48.99708557 -0.02274513 C53.4014976 -0.04081689 57.80563208 -0.03506053 62.21005249 -0.02210617 C64.32156513 -0.01877185 66.43310301 -0.02286014 68.54458618 -0.03450394 C71.49654843 -0.04721026 74.44661629 -0.02783801 77.3984375 0 C78.70619644 -0.01518173 78.70619644 -0.01518173 80.04037476 -0.03067017 C84.44042184 0.0461645 86.16553071 0.2240053 89.72753906 3.04702759 C92.60311797 6.83889462 93.12906253 9.95175595 92.69921875 14.64697266 C90.69484481 18.72995661 88.98089794 21.11991591 84.69921875 22.64697266 C81.73340196 22.84861792 78.86113464 22.94071402 75.89501953 22.9375 C75.00674469 22.94421722 74.11846985 22.95093445 73.20327759 22.95785522 C70.2669719 22.97685224 67.33089457 22.98076028 64.39453125 22.98291016 C62.35195827 22.98933686 60.30938622 22.99606513 58.26681519 23.00308228 C53.98465847 23.01505928 49.70258245 23.01876266 45.42041016 23.01757812 C39.9369564 23.01737491 34.45402075 23.04467841 28.97068977 23.07912254 C24.75159332 23.10137476 20.53262188 23.10541618 16.31347275 23.10435867 C14.29208465 23.1067171 12.27069323 23.11555423 10.24936295 23.13102341 C7.41994332 23.15064933 4.59164524 23.14485865 1.76220703 23.1328125 C0.51358887 23.14967102 0.51358887 23.14967102 -0.76025391 23.16687012 C-6.06988658 23.10951223 -9.07753253 22.15484651 -13.30078125 18.64697266 C-15.30621091 15.77801521 -15.5671839 13.65996047 -15.23828125 10.20947266 C-15.18542969 9.46826172 -15.13257812 8.72705078 -15.078125 7.96337891 C-12.51344581 0.32089267 -6.97044584 -0.08091969 0 0 Z " fill="#000000" transform="translate(121.30078125,127.35302734375)"/>
<path d="M0 0 C0.71446289 -0.0071553 1.42892578 -0.01431061 2.16503906 -0.02168274 C4.51693483 -0.03853429 6.86691465 -0.01919084 9.21875 0.00219727 C10.85872556 0.00136823 12.49870103 -0.00109248 14.13867188 -0.00511169 C17.57186972 -0.00796724 21.00441429 0.00670688 24.4375 0.03417969 C28.83268672 0.06826273 33.22670561 0.06224233 37.62194824 0.04351711 C41.00726003 0.03293578 44.39230125 0.0418951 47.77758789 0.05690193 C49.39785966 0.06207593 51.01815978 0.06161143 52.63842773 0.05535698 C54.90540063 0.04989075 57.17071613 0.07032154 59.4375 0.09765625 C60.72591797 0.10385483 62.01433594 0.11005341 63.34179688 0.11643982 C67.27362643 0.71566932 68.92411625 1.85737205 71.71875 4.63110352 C73.57730282 8.34820915 73.29783439 12.58387633 72.71875 16.63110352 C70.19198961 19.97735376 68.67941458 21.31088199 64.71875 22.63110352 C62.49696494 22.74090802 60.27203164 22.79013862 58.04760742 22.80810547 C57.03728203 22.81796227 57.03728203 22.81796227 56.00654602 22.82801819 C53.77910241 22.84771691 51.55172611 22.85940601 49.32421875 22.86938477 C48.56217951 22.87346029 47.80014027 22.87753582 47.01500893 22.88173485 C42.98160703 22.90258091 38.94823901 22.91688897 34.91479492 22.92626953 C30.75518905 22.9373315 26.5961185 22.97173257 22.43670177 23.01144123 C19.23243739 23.03762195 16.0283003 23.04596262 12.82393837 23.04955101 C11.29097185 23.05441318 9.75801088 23.06601674 8.22514915 23.084589 C6.07569656 23.10901337 3.92762588 23.10801046 1.77807617 23.10107422 C-0.05367912 23.10987358 -0.05367912 23.10987358 -1.92243958 23.11885071 C-5.95154447 22.5337672 -8.11358652 21.1388135 -11.28125 18.63110352 C-13.28667966 15.76214607 -13.54765265 13.64409133 -13.21875 10.19360352 C-13.16589844 9.45239258 -13.11304687 8.71118164 -13.05859375 7.94750977 C-10.86618707 1.41435821 -6.37879495 0.00476156 0 0 Z " fill="#000000" transform="translate(119.28125,255.368896484375)"/>
<path d="M0 0 C0.67530258 -0.00511093 1.35060516 -0.01022186 2.04637146 -0.01548767 C4.27327395 -0.02935999 6.49986614 -0.02842875 8.72680664 -0.02612305 C10.27853001 -0.03001127 11.83025233 -0.0343462 13.38197327 -0.03910828 C16.63261364 -0.04656538 19.8831454 -0.04628292 23.13378906 -0.04101562 C27.29451721 -0.03522145 31.45480013 -0.05215288 35.61545467 -0.0753603 C38.81969288 -0.09010914 42.02382415 -0.09096779 45.22809029 -0.08785057 C46.76185551 -0.0883632 48.29562682 -0.09359002 49.82935905 -0.10366249 C51.97637542 -0.11603244 54.12252817 -0.10923284 56.26953125 -0.09765625 C58.10009315 -0.09860039 58.10009315 -0.09860039 59.96763611 -0.0995636 C64.21826362 0.39262784 66.67217084 2.09159172 69.98461914 4.6574707 C72.11337857 7.49125335 71.65751976 10.40852885 71.56274414 13.82543945 C71.05789303 17.22911304 69.71264781 18.98322489 67.19946289 21.2746582 C64.23977241 22.75450344 61.56204002 22.43472733 58.25878906 22.4675293 C57.18775185 22.47979553 57.18775185 22.47979553 56.09507751 22.49230957 C53.72753744 22.51716122 51.36005732 22.53367901 48.99243164 22.5480957 C48.18409693 22.55341938 47.37576221 22.55874306 46.54293251 22.56422806 C42.2643084 22.59095884 37.98571346 22.6103338 33.70703125 22.62475586 C29.2882452 22.64140256 24.87020517 22.68617989 20.45170116 22.7371273 C17.05360562 22.77078825 13.65568739 22.78233195 10.25744057 22.78798294 C8.62872937 22.79469883 7.00002998 22.80992985 5.37148094 22.83387375 C3.08980965 22.86550571 0.81015343 22.86556632 -1.47167969 22.8581543 C-3.41787956 22.87028458 -3.41787956 22.87028458 -5.40339661 22.88265991 C-9.66923008 22.11918427 -11.12189032 20.60411472 -13.80053711 17.2746582 C-14.9383531 14.25970801 -15.09375524 11.47750242 -14.80053711 8.2746582 C-11.29006233 1.12369107 -7.63084775 0.02882823 0 0 Z " fill="#000000" transform="translate(120.800537109375,169.725341796875)"/>
</svg>
